<!--<?xml version="1.0" encoding="utf-8"?>-->
<!--&lt;!&ndash; Svg Vector Icons : http://www.onlinewebfonts.com/icon &ndash;&gt;-->
<!--<!DOCTYPE svg PUBLIC "-//W3C//DTD SVG 1.1//EN" "http://www.w3.org/Graphics/SVG/1.1/DTD/svg11.dtd">-->
<svg version="1.1" xmlns="http://www.w3.org/2000/svg" xmlns:xlink="http://www.w3.org/1999/xlink" x="0px" y="0px" viewBox="0 0 1000 1000" enable-background="new 0 0 1000 1000" xml:space="preserve">
<metadata> Svg Vector Icons : http://www.onlinewebfonts.com/icon </metadata>
<g><g transform="translate(0.000000,512.000000) scale(0.100000,-0.100000)"><path d="M4261.5,4986.6c-107.1-38.3-241.1-160.7-296.6-271.7c-42.1-86.1-44-111-53.6-677.3c-11.5-673.5-5.7-652.4-191.3-746.2c-109.1-57.4-193.3-67-281.3-32.5c-28.7,11.5-225.8,191.3-436.2,399.9c-432.4,430.5-486,466.8-698.4,466.8c-218.1,0-260.2-30.6-769.2-539.6c-508.9-508.9-539.6-551-539.6-769.2c0-212.4,36.4-266,466.9-698.4c208.5-210.5,388.4-407.5,399.9-436.2c34.5-88,24.9-172.2-30.6-281.3c-95.7-185.6-74.6-179.9-748.1-191.3c-566.4-9.6-591.2-11.5-677.3-53.6C291.3,1098.8,172.7,966.8,134.4,852c-45.9-132-45.9-1333.6,0-1465.6C172.7-728.4,285.6-854.7,402.3-914c91.8-47.8,101.4-47.8,681.2-57.4c673.5-11.5,652.4-5.7,748.1-191.3c55.5-109.1,65.1-193.3,30.6-281.3c-11.5-28.7-195.1-229.6-409.4-445.8c-256.4-258.3-399.9-419-420.9-468.8c-19.1-45.9-34.4-130.1-34.4-210.5c-1.9-227.7,22.9-264,537.6-778.7c508.9-508.9,551-539.6,769.2-539.6c212.4,0,265.9,36.4,698.4,466.9c210.5,208.6,407.5,388.4,436.2,399.9c88,34.4,172.2,24.9,281.3-30.6c185.6-95.7,179.8-74.6,191.3-748.1c9.6-566.4,11.5-591.2,53.6-677.3c24.9-49.7,84.2-124.4,130.1-166.5c149.2-132,179.9-135.8,906.9-135.8c744.3,0,773,3.8,918.4,151.2c160.7,162.6,160.7,162.6,172.2,828.5c11.5,673.5,5.7,652.4,191.3,748.1c109.1,55.5,193.2,65.1,281.3,30.6c28.7-11.5,225.8-191.3,436.3-399.9c432.4-430.5,486-466.9,698.4-464.9c220,0,260.2,28.7,769.1,537.6c508.9,509,537.6,549.1,537.6,769.2c1.9,212.4-34.4,265.9-464.9,698.4c-208.6,210.5-388.4,407.5-399.9,436.2c-34.4,88-24.9,172.2,32.5,281.3c93.8,185.6,72.7,179.8,746.2,191.3c665.8,11.5,665.8,11.5,828.5,172.2C9896.2-653.8,9900-625.1,9900,119.2c0,727.1-3.8,757.7-135.8,906.9c-42.1,45.9-116.7,105.2-166.5,130.1c-86.1,42.1-111,44-677.3,53.6c-673.5,11.5-652.4,5.7-746.2,191.3c-57.4,109.1-67,193.2-32.5,281.3c11.5,28.7,191.3,225.8,399.9,436.2c430.5,432.4,466.9,486,466.9,698.4c0,218.1-30.6,260.2-539.6,769.2c-514.7,514.7-551,539.6-778.7,537.6c-80.4,0-164.6-15.3-210.5-34.4c-49.7-21-210.5-164.6-468.8-420.9c-216.2-214.3-417.1-398-445.8-409.4c-88-34.4-172.2-24.9-281.3,32.5c-185.6,93.8-179.9,72.7-191.3,746.2c-9.6,579.7-9.6,589.3-57.4,681.1c-59.3,116.7-185.6,229.6-300.4,267.9C5608.4,5030.7,4383.9,5028.7,4261.5,4986.6z M5683,4626.9c34.5-26.8,36.3-61.2,45.9-618l9.6-589.3l55.5-114.8c68.9-139.7,218.1-290.8,346.3-354c82.3-42.1,122.5-47.8,296.6-47.8c308,0,338.7,19.1,822.7,497.5c292.7,288.9,407.5,392.2,442,392.2c65.1,0,973.9-908.8,973.9-973.9c0-34.4-99.5-147.3-392.2-442c-453.5-457.3-489.8-512.8-503.2-776.8c-13.4-264,76.5-461.1,279.3-610.3c174.1-128.2,264-143.5,866.7-143.5c508.9,0,535.7-1.9,572.1-38.3c36.3-36.4,38.3-63.1,38.3-685c0-528.1-5.7-654.4-26.8-685c-26.8-34.4-61.2-36.3-618-45.9l-589.3-9.6L8187.6-673c-158.8-78.4-319.5-244.9-373.1-388.4c-34.4-91.8-40.2-139.7-34.4-283.2c11.5-281.3,42.1-327.2,503.2-794c288.9-292.7,392.2-407.5,392.2-442c0-65.1-908.8-973.9-973.9-973.9c-34.4,0-149.2,103.3-442,392.2c-466.9,461.1-512.8,491.7-794,503.2c-143.5,5.7-191.3,0-283.2-34.4c-143.5-53.6-310-214.3-388.4-373.1l-55.5-114.8l-9.6-589.3c-9.6-556.8-11.5-591.2-45.9-618c-30.6-21.1-156.9-26.8-685-26.8c-621.8,0-648.6,1.9-685,38.3c-36.4,36.4-38.3,63.1-38.3,572.1c0,602.7-15.3,692.6-143.5,866.7C3982.1-2735.5,3785-2645.6,3521-2659c-264-13.4-319.5-49.7-776.8-503.2c-294.7-292.7-407.5-392.2-442-392.2c-65,0-973.9,908.8-973.9,973.9c0,34.4,103.3,149.2,392.2,442c478.3,484.1,497.5,514.7,497.5,822.7c0,174.1-5.7,214.3-47.8,296.6c-63.1,128.2-214.3,277.4-354,346.3l-114.8,55.5l-589.3,9.6c-556.8,9.6-591.2,11.5-618,45.9c-21,30.6-26.8,156.9-26.8,685c0,621.8,1.9,648.6,38.3,685c36.3,36.4,63.1,38.3,572.1,38.3c602.7,0,692.6,15.3,866.7,143.5c202.8,149.2,292.7,346.3,279.3,610.3c-13.4,262.1-49.7,317.6-503.2,776.8c-288.9,292.7-392.2,407.5-392.2,442c0,65.1,908.8,973.9,973.9,973.9c34.5,0,149.3-103.3,442-392.2c459.2-453.5,514.7-489.8,776.8-503.2c264-13.4,461.1,76.5,610.4,279.3c128.2,174.1,143.5,264,143.5,866.7c0,508.9,1.9,535.7,38.3,572.1c36.3,36.3,63.1,38.3,685,38.3C5526.2,4653.7,5652.4,4648,5683,4626.9z"/><path d="M4680.5,1716.8c-390.3-84.2-736.6-311.9-993-650.5C3350.7,622.4,3278-16.7,3507.6-521.8c78.5-172.2,231.5-386.5,371.2-520.4c308-294.7,639.1-440.1,1038.9-459.2c248.7-13.4,403.7,9.6,631.4,91.8c533.8,193.3,964.3,709.9,1061.9,1272.4c34.5,200.9,13.4,520.4-49.7,715.6c-63.1,199-101.4,275.5-223.8,451.5c-229.6,334.8-591.2,585.5-977.7,677.3C5174.1,1751.2,4864.2,1757,4680.5,1716.8z M5334.8,1343.7c440.1-112.9,778.7-451.5,891.6-891.6c78.4-308,38.3-667.7-109.1-950.9c-95.7-185.6-311.9-401.8-497.5-497.5c-380.7-199-855.2-199-1236,0c-185.6,95.7-401.8,311.9-497.5,497.5c-199,380.7-199,855.2,0,1236c95.7,185.6,311.9,401.8,497.5,497.5C4667.1,1382,5026.8,1422.1,5334.8,1343.7z"/></g></g>
</svg>
